<?xml version="1.0" encoding="utf-8"?>
<!-- Generator: Adobe Illustrator 18.0.0, SVG Export Plug-In . SVG Version: 6.00 Build 0)  -->
<!DOCTYPE svg PUBLIC "-//W3C//DTD SVG 1.1//EN" "http://www.w3.org/Graphics/SVG/1.1/DTD/svg11.dtd">
<svg version="1.1" id="Layer_1" xmlns="http://www.w3.org/2000/svg" xmlns:xlink="http://www.w3.org/1999/xlink" x="0px" y="0px"
	 viewBox="0 0 185 122" enable-background="new 0 0 185 122" xml:space="preserve">
<g>
	<path fill="#EF8321" d="M30.7,15.5c0,3.2-0.1,5.9,0,8.5c0.4,9.1,6.8,16,15.8,16.1c30.8,0.2,61.5,0.2,92.3,0
		c8.7-0.1,15.1-7,15.4-15.7c0.1-2.7,0-5.4,0-8.9c5.6,1.9,8.7,5.7,9,10.8c0.5,9.1,0.3,18.2,0.1,27.3c-0.2,7.5-8.9,13.7-16.2,12.1
		c-1.7-0.4-2-1.3-2.3-2.7c-1.6-7.2-4.3-10-11.8-10.1c-26.5-0.3-53-0.3-79.5,0.1c-5.9,0.1-11.7,2.2-12.4,9.7c-0.2,2.5-1.8,3-4,3.1
		c-9.1,0.4-15.6-5.5-15.6-14.6c0-7.7-0.2-15.5,0-23.2C21.7,22.1,24.6,17.9,30.7,15.5z"/>
	<path fill="#EF882B" d="M92.7,14.5c16.6,0,33.3,0.2,49.9-0.1c5.1-0.1,6.3,1.9,6.3,6.4c0.1,9.6-3.8,13.9-13.6,13.9
		c-28.4,0.1-56.9,0.1-85.3,0c-10.9,0-15.6-6.3-13.5-17.1c0.7-3.5,2.9-3,5.2-3C58.7,14.5,75.7,14.5,92.7,14.5z M143.2,29.5
		c0-0.5-0.1-1-0.1-1.5c-34.2,0-68.5,0-102.7,0c0,0.5,0,1,0,1.5C74.7,29.5,108.9,29.5,143.2,29.5z M143.1,21.2c0-0.5,0-0.9,0-1.4
		c-34.2,0-68.4,0-102.6,0c0,0.5,0,0.9,0,1.4C74.7,21.2,108.9,21.2,143.1,21.2z"/>
	<path fill="#EF8321" d="M92.4,65.7c-14.1,0-28.3,0-42.4,0c-1.6,0-4.1,1-4.5-1.2c-0.4-2.2,0.2-4.6,2.8-5.9c3.2-1.6,6.6-2.3,10.1-2.3
		c23.1,0,46.1,0,69.2,0c3.1,0,6.1,0.7,9.1,1.8c2.8,1.1,4,3.3,3.5,6c-0.5,3-3.1,1.6-4.7,1.6C121.1,65.7,106.8,65.7,92.4,65.7z"/>
	<path fill="#EF882B" d="M60.8,76.1c-6.1,5.3,0.4,9.6,1.7,14.6c1.5,6-1.1,10.9-4.5,15.5c-1,1.4-2.5,1.8-4,0.7
		c-1.3-1-1.1-2.4-0.1-3.6c4.8-5.9,4.6-11.5,0.3-17.8c-2.6-3.9-1.3-8.2,2.1-11.5c0.8-0.8,1.9-1.4,3.1-0.6
		C60.1,73.9,60.8,74.5,60.8,76.1z"/>
	<path fill="#EF882B" d="M79.1,107.6c-2.7-0.7-3.7-2.1-2-4.2c4.6-5.9,5-11.6,0.3-17.9c-2.7-3.6-1.3-7.8,1.6-11.2
		c1-1.2,2.4-2.1,4-0.7c1.3,1.1,1.4,2.3,0.3,3.5c-2.9,3.3-1.6,6.2,0.4,9.4c3.7,5.9,2.5,15-2.5,19.6C80.6,106.8,79.7,107.2,79.1,107.6
		z"/>
	<path fill="#EF882B" d="M109.6,93.7c-0.5,4.7-2.2,8.7-4.9,12.3c-1,1.3-2.4,2.1-4,1.1c-1.7-1.1-1.3-2.6-0.2-4
		c4.6-5.7,4.5-11.2,0.2-17.4c-2.7-3.9-1.4-8.2,1.8-11.6c0.9-1,2.2-1.7,3.6-0.6c1.3,1,1.8,2.1,0.6,3.4c-3.1,3.5-1.9,6.7,0.5,9.9
		C108.8,88.9,109.2,91.4,109.6,93.7z"/>
	<path fill="#EF882B" d="M128,72.9c2,0.6,3.6,1.8,1.9,4c-2.9,3.7-1.4,6.7,0.7,10c3.5,5.6,2,14.8-2.8,19.3c-1.3,1.2-2.5,1.8-4,0.6
		c-1.3-1.1-0.9-2.4,0-3.6c4.4-5.7,4.6-11.2,0.3-17.5C121,81.3,124,73.2,128,72.9z"/>
</g>
</svg>
