<?xml version="1.0" encoding="utf-8"?>
<!-- Generator: Adobe Illustrator 18.0.0, SVG Export Plug-In . SVG Version: 6.00 Build 0)  -->
<!DOCTYPE svg PUBLIC "-//W3C//DTD SVG 1.1//EN" "http://www.w3.org/Graphics/SVG/1.1/DTD/svg11.dtd">
<svg version="1.1" id="Layer_1" xmlns="http://www.w3.org/2000/svg" xmlns:xlink="http://www.w3.org/1999/xlink" x="0px" y="0px"
	 viewBox="0 0 185 122" enable-background="new 0 0 185 122" xml:space="preserve">
<g>
	<path fill="#EE7E1E" d="M27.8,16.4c27.5,0,55,0,82.6,0c0.2,0,0.3,0.1,0.5,0.1c1.5,0.2,2.8,0.7,4,1.7c1.8,1.7,2.6,3.8,2.6,6.2
		c0,20.7,0,41.3,0,62c0,0.2,0,0.4,0,0.6c-15.7,0-31.2,0-46.8,0c-2.2-8.1-9.2-13.6-17.3-14c-8.2-0.4-16.7,5.2-18.8,14
		c-2.3,0-4.6,0.1-6.9,0c-2.3-0.1-3.9-1.4-4.7-3.5c-0.1-0.3-0.2-0.7-0.3-1c0-0.5,0-1.1,0-1.6c0.1-0.2,0.1-0.3,0.2-0.5
		c0.4-1.6,1.3-2.7,2.8-3.4c0.7-0.3,1.4-0.5,2.3-0.7c0-0.1,0-0.4,0-0.6c0-19.5,0-39,0-58.5C27.7,16.9,27.8,16.6,27.8,16.4z"/>
	<path fill="#EE7E1E" d="M122.9,78.8c0-13.9,0-27.6,0-41.5c0.2,0,0.4,0,0.6,0c7.7,0,15.4,0,23.1,0c2.2,0,4,1,5.2,2.7
		c3.4,4.7,6.5,9.5,8.7,14.9c0.9,2.2,1.7,4.5,2,6.9c0,0.3,0.1,0.6,0.1,0.9c0,7.3,0,14.7,0,22c0,1.6-0.8,2.5-2.4,2.6
		c-1.8,0.1-3.5,0-5.3,0c-0.3,0-0.4-0.2-0.4-0.5c-1.4-5.2-4.5-9.1-9.2-11.7c-7.1-3.9-16.1-2.6-21.8,3.2
		C123.2,78.5,123.1,78.7,122.9,78.8z M130.2,41.9c0,4.4,0,8.8,0,13.1c8.4,0,16.8,0,25.2,0c0-0.1-0.1-0.2-0.1-0.4
		c-2-4.2-4.5-8.1-7.2-11.8c-0.5-0.6-1.1-1-2-1c-5.1,0-10.2,0-15.3,0C130.6,41.9,130.4,41.9,130.2,41.9z"/>
	<path fill="#EE7E1E" d="M66.5,91.6c0,7.8-6.5,14.2-14.3,14c-7.6-0.2-13.8-6.4-13.7-14.2c0.1-7.6,6.3-13.9,14-13.9
		C60.3,77.6,66.5,83.9,66.5,91.6z M59,91.6c0-3.6-2.9-6.5-6.5-6.5c-3.6,0-6.5,2.9-6.5,6.5c0,3.6,2.9,6.5,6.5,6.5
		C56.1,98.1,59,95.2,59,91.6z"/>
	<path fill="#EE7E1E" d="M136.3,105.6c-7.8,0-14-6.2-14-14.2c0-7.6,6.4-13.9,14.1-13.8c7.8,0,14,6.3,14,14.1
		C150.4,99.4,144.1,105.6,136.3,105.6z M129.8,91.6c0,3.5,2.9,6.5,6.5,6.5c3.6,0,6.5-2.9,6.6-6.5c0-3.6-2.9-6.5-6.4-6.5
		C132.8,85.1,129.9,88,129.8,91.6z"/>
</g>
</svg>
