<?xml version="1.0" encoding="utf-8"?>
<!-- Generator: Adobe Illustrator 18.0.0, SVG Export Plug-In . SVG Version: 6.00 Build 0)  -->
<!DOCTYPE svg PUBLIC "-//W3C//DTD SVG 1.1//EN" "http://www.w3.org/Graphics/SVG/1.1/DTD/svg11.dtd">
<svg version="1.1" id="Layer_1" xmlns="http://www.w3.org/2000/svg" xmlns:xlink="http://www.w3.org/1999/xlink" x="0px" y="0px"
	 viewBox="0 0 185 122" enable-background="new 0 0 185 122" xml:space="preserve">
<g>
	<path fill="#8184A1" d="M128.8,15.7c0.1,22.5,0.1,45.1,0.3,67.6c0,2.6-1,3.3-3.4,3.3c-22-0.1-44.1-0.1-66.1,0c-3.8,0-3.7-2-3.7-4.7
		c0-22,0-44,0-66.1C80.2,15.9,104.5,15.8,128.8,15.7z M93.8,44.2c6.8-2.8,8.2-6.5,4.4-11.5c-1.7-2.9-1.5-7.3-6.1-8.3
		c-0.5,3-1.9,5.3-3.8,7.4c-2.1,2.3-3.9,4.9-2.2,8C87.7,42.6,90.1,44.7,93.8,44.2z M92.2,66.7c-4.6,0-9.2,0-13.7,0
		c-1.6,0-3.4,0.2-3.6,2.2c-0.2,2.1,1.5,2.7,3.2,2.7c9.2,0,18.3,0,27.5,0c1.5,0,3-0.5,3.1-2.2c0.1-2.1-1.5-2.6-3.2-2.7
		C101.1,66.7,96.6,66.7,92.2,66.7z"/>
	<path fill="#8184A1" d="M92.3,88.8c10.7,0,21.5,0.1,32.2-0.1c3.3-0.1,4.5,0.8,4.6,4.4c0.2,16.6,0.4,16.6-16.5,16.6
		c-15.8,0-31.7,0-47.5,0c-6.6,0-8.9-2.4-9.1-8.8c-0.3-12.1-0.3-12.1,12-12.1C76.1,88.8,84.2,88.8,92.3,88.8z M92.6,105.7
		c3.8-0.5,6.4-2.5,6.4-6.4c0-3.9-2.4-6.2-6.3-6.3c-3.9,0-6.2,2.3-6.2,6.2C86.4,103.3,88.8,105.2,92.6,105.7z"/>
	<path fill="#8184A1" d="M55.9,13.4C56.6,8.7,59.4,7,64,7c19,0.1,38,0.1,57,0c4.4,0,7.6,1.4,7.7,6.5C104.5,13.5,80.2,13.4,55.9,13.4
		z"/>
	<path fill="#8184A1" d="M79.6,111c1,0.3,2.9-0.7,2.9,1.2c0,1.6-1.5,2.7-3.3,2.7c-1.5,0-3-0.9-3-2.3C76.1,110,78.5,111.6,79.6,111z"
		/>
	<path fill="#8184A1" d="M102.4,111.5c2.6-0.5,4.6-0.6,6.7,0C106.8,116.1,105.9,116.2,102.4,111.5z"/>
</g>
</svg>
