<?xml version="1.0" encoding="utf-8"?>
<!-- Generator: Adobe Illustrator 18.0.0, SVG Export Plug-In . SVG Version: 6.00 Build 0)  -->
<!DOCTYPE svg PUBLIC "-//W3C//DTD SVG 1.1//EN" "http://www.w3.org/Graphics/SVG/1.1/DTD/svg11.dtd">
<svg version="1.1" id="Layer_1" xmlns="http://www.w3.org/2000/svg" xmlns:xlink="http://www.w3.org/1999/xlink" x="0px" y="0px"
	 viewBox="0 0 185 122" enable-background="new 0 0 185 122" xml:space="preserve">
<g>
	<path fill="#8386A2" d="M87.2,57c14.5,0,29-0.1,43.5,0.1c3.3,0,4.5-0.7,4.4-4.2c-0.2-9.7,0-19.3-0.1-29c-0.1-7.7-6.6-11.8-12.8-8.2
		c-2.6,1.5-4.8,3.4-0.7,5.9c0.8,0.5,1.5,1.3,2,2c1.5,1.9,3.4,4.1,2.5,6.5c-1,2.6-4,1.1-6,1.2c-5.3,0.2-10.6,0-15.9,0.1
		c-2.5,0-3.1-0.8-2.4-3.2c0.7-2.2,1.6-4.5,3.4-5.7c3.6-2.2,5.5-5.5,7.4-9c3.1-5.9,11.1-8.7,18.1-7c7.7,1.9,12.8,8.2,13,16.5
		c0.2,9.8,0.1,19.6,0,29.5c0,2.2-0.1,4.2,2.4,5.7c2.4,1.5,2.7,8.6,0.3,10c-3.1,1.8-2.8,4.4-2.7,7c0.3,7.4-0.1,14.4-5.4,20.4
		c-2.4,2.7-5.2,4.7-8.4,6.3c-1,0.5-2.9,0.4-2.5,2.3c0.2,1.5,1.2,2.6,2.6,3.3c0.6,0.3,1.2,0.3,1.8,0.5c2.3,0.8,3.6,2.4,3.1,4.7
		c-0.5,2.6-2.5,3.6-5.1,3.4c-5.6-0.4-8.8-3.8-10.4-8.7c-1-3.2-2.7-4-5.9-4c-14,0.2-28,0.2-42,0c-3,0-4.5,0.8-5.5,3.8
		c-1.7,4.9-4.9,8.7-10.8,8.8c-2.5,0.1-4.1-0.9-4.7-3.3c-0.6-2.4,0.7-3.9,3-4.8c1.2-0.4,2.5-0.5,3.4-1.6c1.3-1.8,2.5-3-0.8-4.5
		C46.3,97.6,41.4,89.9,41.5,79c0-4.1,1.2-8.4-3.1-11.8c-2.1-1.6-1.4-5.2-0.4-7.8c1-2.5,3.4-2.5,5.8-2.5C58.3,57.1,72.8,57,87.2,57z
		 M93,69.7c-10.8,0-21.5,0-32.3,0c-10.9,0-10.9,0-10.6,11c0.3,8.6,6.2,14.3,14.8,14.3c18.5,0,37,0,55.5,0c8.8,0,14.5-5.7,14.6-14.4
		c0-1.9-0.2-3.9,0-5.8c0.5-3.9-0.8-5.2-4.9-5.1C117.8,69.9,105.4,69.7,93,69.7z"/>
	<path fill="#8C8EA9" d="M103,47.1c-1.4-0.4-2.4-1.2-2.1-2.7c0.3-1.5,0.7-3.3,2.8-3c1.4,0.2,2.2,1.3,1.8,2.8
		C105.2,45.5,104.7,46.9,103,47.1z"/>
	<path fill="#8C8EA9" d="M124.6,47.1c-1.9-0.4-2.5-1.9-2.6-3.5c-0.1-1.4,0.8-2.5,2.3-2.3c1.8,0.1,2.1,1.7,2.3,3.1
		C126.9,45.9,126.1,46.8,124.6,47.1z"/>
	<path fill="#8C8EA9" d="M113.9,41.2c1.8,0.5,2.4,1.7,2.2,3.3c-0.1,1.4-0.9,2.6-2.4,2.5c-1.9-0.1-2-1.7-2-3.2
		C111.8,42.4,112.5,41.4,113.9,41.2z"/>
	<path fill="#8C8EA9" d="M113.9,54.8c-1.5-0.2-2.1-1.2-2.1-2.6c0-1.4,0.3-2.6,2-2.7c1.6,0,2.2,1.1,2.3,2.5
		C116.2,53.5,115.3,54.4,113.9,54.8z"/>
	<path fill="#8C8EA9" d="M101.2,54.8c-1.3-0.3-2.2-1-2.2-2.3c0-1.6,0.8-2.9,2.5-2.9c1.4,0,1.8,1.1,1.8,2.4
		C103.2,53.4,102.7,54.5,101.2,54.8z"/>
	<path fill="#8386A2" d="M115.9,36c0,1.4-0.3,2.6-1.9,2.7c-1.4,0.1-2-0.8-2.1-2.1c-0.1-1.4,0.2-2.7,1.7-3
		C115.1,33.4,115.7,34.6,115.9,36z"/>
	<path fill="#8C8EA9" d="M126.4,49.6c1.5,0.4,2,1.5,2,2.9c0,1.2-0.6,2.3-1.9,2.2c-1.8-0.1-2.3-1.5-2.2-3.1
		C124.4,50.4,125.1,49.6,126.4,49.6z"/>
	<path fill="#8386A2" d="M107.2,35.9c-0.1,1.4-0.5,2.7-2.1,2.7c-1.3,0-2-1-1.9-2.3c0-1.2,0.7-2.2,1.9-2.4
		C106.5,33.7,107.1,34.6,107.2,35.9z"/>
	<path fill="#8386A2" d="M124.5,36.6c-0.2,1.1-0.7,2.1-2,2c-1.5-0.2-2-1.3-2-2.7c0-1.3,0.7-2.1,2-2
		C123.9,34.1,124.4,35.2,124.5,36.6z"/>
</g>
</svg>
