<?xml version="1.0" encoding="utf-8"?>
<!-- Generator: Adobe Illustrator 18.0.0, SVG Export Plug-In . SVG Version: 6.00 Build 0)  -->
<!DOCTYPE svg PUBLIC "-//W3C//DTD SVG 1.1//EN" "http://www.w3.org/Graphics/SVG/1.1/DTD/svg11.dtd">
<svg version="1.1" id="Layer_1" xmlns="http://www.w3.org/2000/svg" xmlns:xlink="http://www.w3.org/1999/xlink" x="0px" y="0px"
	 viewBox="0 0 185 122" enable-background="new 0 0 185 122" xml:space="preserve">
<g>
	<path fill="#EF8321" d="M92.7,6c30.2,0.1,55.2,25.1,55,55.1c-0.2,30.2-25.1,54.9-55.2,54.9c-30.6-0.1-55.3-24.8-55.2-55.4
		C37.4,30.5,62.3,5.9,92.7,6z M128.3,61.1c0-20-15.7-36-35.6-36c-20-0.1-36.5,16.2-36.4,36c0.1,19.7,16.4,35.8,36.1,35.8
		C112.3,96.9,128.3,81,128.3,61.1z"/>
	<path fill="#EF8321" d="M103.4,65.5c0.1,9.5-3.1,12.7-10.6,12.5C85.6,78,82.6,74.7,83,67.3c0.5-9.2,5-17.1,9.2-25
		c0.9-1.6,1.8-1.2,2.5,0.1C98.9,50.4,103,58.4,103.4,65.5z"/>
</g>
</svg>
