<?xml version="1.0" encoding="utf-8"?>
<!-- Generator: Adobe Illustrator 18.0.0, SVG Export Plug-In . SVG Version: 6.00 Build 0)  -->
<!DOCTYPE svg PUBLIC "-//W3C//DTD SVG 1.1//EN" "http://www.w3.org/Graphics/SVG/1.1/DTD/svg11.dtd">
<svg version="1.1" id="Layer_1" xmlns="http://www.w3.org/2000/svg" xmlns:xlink="http://www.w3.org/1999/xlink" x="0px" y="0px"
	 viewBox="3603.2 499.2 22 22" enable-background="new 3603.2 499.2 22 22" xml:space="preserve">
<g>
	<path fill="#8184A1" d="M3613.4,502.4c-3.7-0.1-7,2.5-7.7,6.1c-0.9,4.1,1.4,8.1,5.4,9.2c2.9,0.8,5.5,0.1,7.7-1.9
		c0.4-0.4,0.8-0.4,1.2-0.2c0.6,0.3,0.7,1.1,0.2,1.5c-1.1,1.1-2.3,1.8-3.7,2.3c-5.3,1.8-11.1-1.3-12.5-6.7
		c-1.4-5.2,1.7-10.6,6.9-11.9c3.7-0.9,6.9,0,9.6,2.7c1.1,1.1,1.9,2.5,2.3,4.1c0,0.2,0.1,0.2,0.3,0.2c0.3,0,0.6,0,0.9,0
		c0.8,0,1.2,0.8,0.8,1.4c-0.7,1.1-1.3,2.3-2,3.4c-0.4,0.7-1.3,0.7-1.7,0c-0.7-1.1-1.3-2.2-2-3.4c-0.4-0.7,0-1.5,0.8-1.5
		c0.2,0,0.5,0,0.7,0c0.2,0,0.1-0.1,0.1-0.2c-0.2-0.6-0.5-1.1-0.8-1.7c-1.3-2-3.1-3.2-5.5-3.5C3614,502.4,3613.7,502.4,3613.4,502.4z
		"/>
	<path fill="#8184A1" d="M3612.4,505c0.7,0,1.6,0,2.5,0.1c1,0.1,1.8,0.5,2.4,1.4c1.2,2,0,4.5-2.3,4.7c-1.2,0.1-2.4,0.1-3.6,0.1
		c-0.2,0-0.3,0.1-0.3,0.3c0,0.3,0,0.6,0,1c0,0.2,0,0.2,0.2,0.2c1.2,0,2.5,0,3.7,0c0.3,0,0.3,0,0.3,0.3c0,0.2,0,0.4,0,0.6
		c0,0.2-0.1,0.3-0.3,0.3c-1.2,0-2.5,0-3.7,0c-0.2,0-0.2,0-0.2,0.2c0,0.4,0,0.7,0,1.1c0,0.2-0.1,0.3-0.3,0.3c-0.3,0-0.6,0-1,0
		c-0.2,0-0.2-0.1-0.2-0.2c0-0.4,0-0.8,0-1.2c0-0.1,0-0.2-0.1-0.2c-0.2,0-0.3,0-0.5,0c-0.2,0-0.2-0.1-0.2-0.2c0-0.3,0-0.5,0-0.8
		c0-0.1,0.1-0.2,0.2-0.2c0.2,0,0.5,0.1,0.6-0.1c0.1-0.1,0-0.4,0-0.6c0-0.2,0-0.4,0-0.6c0-0.1,0-0.2-0.2-0.2c-0.1,0-0.3,0-0.4,0
		c-0.1,0-0.2-0.1-0.2-0.2c0-0.3,0-0.5,0-0.8c0-0.1,0.1-0.2,0.2-0.2c0.1,0,0.3,0,0.4,0c0.2,0,0.2,0,0.2-0.2c0-1.2,0-2.3,0-3.5
		c0-0.3,0-0.7,0-1c0-0.2,0.1-0.3,0.3-0.3C3610.8,505,3611.5,505,3612.4,505z M3613,506.3c-0.5,0-1.1,0-1.6,0c-0.2,0-0.2,0-0.2,0.2
		c0,1.1,0,2.2,0,3.2c0,0.2,0.1,0.2,0.2,0.2c0.6,0,1.3,0,1.9,0c0.6,0,1.2,0,1.8-0.2c0.6-0.2,0.9-0.6,1.1-1.2c0.1-0.3,0.1-0.7-0.1-1
		c-0.2-0.6-0.6-1.1-1.3-1.1C3614.3,506.3,3613.7,506.3,3613,506.3z"/>
</g>
</svg>
