<?xml version="1.0" encoding="utf-8"?>
<!-- Generator: Adobe Illustrator 18.0.0, SVG Export Plug-In . SVG Version: 6.00 Build 0)  -->
<!DOCTYPE svg PUBLIC "-//W3C//DTD SVG 1.1//EN" "http://www.w3.org/Graphics/SVG/1.1/DTD/svg11.dtd">
<svg version="1.1" id="Layer_1" xmlns="http://www.w3.org/2000/svg" xmlns:xlink="http://www.w3.org/1999/xlink" x="0px" y="0px"
	 viewBox="0 0 22 22" enable-background="new 0 0 22 22" xml:space="preserve">
<g>
	<path fill="#8184A1" d="M11.8,21.7c-0.5,0-1.1,0-1.6,0c0-0.1-0.1,0-0.1,0c-0.3,0-0.5-0.1-0.8-0.1c-0.7-0.1-1.3-0.3-2-0.5
		C7.2,21,7.1,21,7,21c-0.1-0.1-0.3-0.1-0.4-0.2c0,0-0.1,0-0.1-0.1c-0.1-0.1-0.3-0.1-0.4-0.2c0,0-0.1,0-0.1-0.1
		c-0.1-0.1-0.2-0.1-0.4-0.2c-0.1,0-0.1-0.1-0.2-0.1C5.3,20.1,5.1,20,5,19.9c0,0-0.1-0.1-0.1-0.1c-0.1-0.1-0.2-0.2-0.3-0.2
		c0-0.1-0.1-0.1-0.2-0.1c-0.1-0.1-0.2-0.2-0.3-0.2c0,0-0.1-0.1-0.1-0.1c-0.1-0.1-0.2-0.2-0.3-0.3c-0.1-0.1-0.1-0.1-0.2-0.2
		c-0.1-0.1-0.2-0.2-0.3-0.3c-0.1-0.1-0.1-0.1-0.2-0.2C3,18.1,2.9,18,2.8,18c0,0-0.1-0.1-0.1-0.1c-0.1-0.1-0.2-0.2-0.3-0.3
		c0,0,0-0.1-0.1-0.1c-0.1-0.1-0.2-0.2-0.3-0.4C2.1,17,2,16.9,2,16.8c-0.1-0.1-0.2-0.3-0.2-0.4c0-0.1,0-0.1-0.1-0.2
		c-0.1-0.1-0.1-0.2-0.2-0.3c0-0.1-0.1-0.2-0.1-0.2c0-0.1-0.1-0.2-0.2-0.4c0,0,0-0.1-0.1-0.1C1.1,15.1,1,15,1,14.9
		c0-0.1,0-0.1-0.1-0.2c0,0,0-0.1,0-0.1c-0.2-0.7-0.4-1.4-0.5-2.1c0-0.2,0-0.4-0.1-0.6c0-0.6,0-1.2,0-1.8c0,0,0,0,0-0.1
		c0.1-0.9,0.3-1.8,0.6-2.7C0.9,7.3,1,7.1,1,7c0.2-0.4,0.4-0.8,0.6-1.2c0.1-0.2,0.2-0.3,0.3-0.5c0.4-0.6,0.8-1.1,1.2-1.6
		C3.8,3,4.5,2.4,5.3,1.9c0.2-0.1,0.3-0.2,0.5-0.3C6.2,1.4,6.6,1.2,7,1c0.1,0,0.2-0.1,0.4-0.1c0,0,0.1,0,0.1,0
		c1.8-0.6,3.5-0.7,5.4-0.4c0.6,0.1,1.2,0.3,1.8,0.5c0,0,0.1,0.1,0.2,0.1C15,1,15.1,1.1,15.3,1.2c0,0,0.1,0.1,0.1,0.1
		c0.1,0.1,0.2,0.1,0.4,0.2c0.1,0,0.2,0.1,0.2,0.1c0.1,0.1,0.2,0.1,0.3,0.2c0,0,0.1,0.1,0.2,0.1c0.1,0.1,0.3,0.2,0.4,0.2
		C16.9,2,17,2.1,17,2.1c0.1,0.1,0.2,0.2,0.4,0.3c0,0,0.1,0,0.1,0.1c0.1,0.1,0.2,0.2,0.3,0.3c0,0,0.1,0.1,0.1,0.1
		C18,2.9,18.1,3,18.2,3.1c0.1,0.1,0.1,0.1,0.2,0.2c0.1,0.1,0.2,0.2,0.3,0.3c0.1,0.1,0.1,0.1,0.2,0.2C18.9,3.8,19,3.9,19.1,4
		c0,0,0,0.1,0.1,0.1c0.1,0.1,0.2,0.2,0.3,0.4c0,0.1,0,0.1,0.1,0.1c0.1,0.1,0.2,0.2,0.2,0.3c0,0.1,0,0.1,0.1,0.1
		c0.1,0.1,0.2,0.2,0.2,0.4c0,0.1,0.1,0.1,0.1,0.2c0.1,0.1,0.1,0.2,0.2,0.4c0,0,0,0.1,0.1,0.1c0.1,0.1,0.1,0.3,0.2,0.4
		c0,0,0,0.1,0.1,0.1c0,0.1,0.1,0.3,0.2,0.4c0,0.1,0,0.1,0.1,0.2c0,0.1,0,0.1,0.1,0.2c0.4,1.1,0.6,2.2,0.6,3.3c0,1.2-0.2,2.4-0.5,3.6
		c0,0.1-0.1,0.2-0.1,0.3c-0.2,0.4-0.3,0.7-0.5,1.1c-0.1,0.2-0.2,0.3-0.2,0.5c-0.1,0.1-0.1,0.2-0.2,0.3c-0.6,1-1.3,1.8-2.1,2.6
		c-0.6,0.5-1.2,0.9-1.8,1.3c-0.2,0.1-0.3,0.2-0.5,0.2c-0.4,0.2-0.7,0.3-1.1,0.5c-0.1,0-0.2,0.1-0.3,0.1c-0.6,0.2-1.2,0.3-1.9,0.4
		C12.3,21.6,12,21.6,11.8,21.7z M14.1,10.6c0,0.1,0,0.1,0.1,0.2c0,0.1,0.1,0.3,0.1,0.4c0,0.2,0.1,0.1,0.2,0.1c0.2,0,0.4,0,0.7,0
		c0.1,0,0.2,0,0.3,0c0.3,0,0.5-0.1,0.8-0.1c0.1,0,0.2,0,0.3-0.1c0.4-0.1,0.8-0.3,1.2-0.5c0.3-0.2,0.5-0.4,0.7-0.7
		c0.1-0.2,0.2-0.5,0.1-0.8c0-0.1,0-0.2-0.1-0.1C18.2,9,18,9.2,17.9,9.3c-0.4,0.2-0.7,0.4-1.1,0.5c-0.1,0-0.2,0.1-0.3,0.1
		c-0.3,0.1-0.5,0.1-0.8,0.2c-0.1,0-0.2,0-0.3,0c-0.2,0-0.4,0-0.6,0.1c-0.1,0-0.2,0-0.3,0c-0.2,0-0.4,0-0.6,0
		C13.9,10.4,14,10.5,14.1,10.6z M14.4,8.6c-0.2,0-0.4,0-0.6,0c-0.4-0.1-0.9-0.1-1.3-0.2C12.8,8.7,13,9,13.3,9.2
		c0.1,0.1,0.1,0.2,0.2,0.3c0,0.1,0.1,0.1,0.1,0.2c0.2,0.1,0.4,0,0.6,0c0.1,0,0.1,0,0.2,0c0.2,0,0.4,0,0.7,0c0.1,0,0.2,0,0.2,0
		c0.3,0,0.5-0.1,0.8-0.1c0.1,0,0.2,0,0.3-0.1c0.4-0.1,0.7-0.2,1-0.4c0.4-0.2,0.8-0.5,1-1c0.1-0.2,0.1-0.3,0.1-0.5
		c0-0.1,0-0.2-0.1-0.2c-0.1,0-0.1,0.1-0.2,0.1c-0.2,0.1-0.4,0.3-0.6,0.4C17.3,8,17,8.1,16.6,8.3c-0.1,0-0.2,0.1-0.3,0.1
		c-0.3,0.1-0.5,0.1-0.8,0.2c-0.1,0-0.2,0-0.3,0c-0.2,0-0.4,0-0.7,0.1C14.5,8.6,14.5,8.6,14.4,8.6z M14.5,12.7c0,0.1-0.1,0.2,0.1,0.3
		c0.2,0,0.4,0,0.7,0c0.1,0,0.2,0,0.3,0c0.3,0,0.5-0.1,0.8-0.2c0.1,0,0.2-0.1,0.3-0.1c0.5-0.2,1.1-0.4,1.5-0.8c0.3-0.3,0.5-0.6,0.4-1
		c0-0.1,0-0.2-0.1-0.2c-0.1,0-0.1,0.1-0.2,0.1c-0.1,0-0.1,0.1-0.1,0.1c-0.4,0.3-0.8,0.5-1.3,0.7c-0.1,0-0.2,0-0.3,0.1
		c-0.3,0.1-0.5,0.1-0.8,0.2c-0.1,0-0.2,0-0.3,0c-0.3,0-0.6,0.1-1,0.1c-0.1,0-0.1,0-0.1,0.1C14.5,12.2,14.5,12.4,14.5,12.7z
		 M3.8,14.5c0,0.2,0.1,0.3,0.2,0.5c0,0.1,0,0.1,0.1,0.2c0,0.1,0.1,0.3,0.2,0.4c0,0.1,0.1,0.1,0.1,0.2c0.1,0.1,0.1,0.2,0.2,0.3
		c0,0.1,0.1,0.1,0.1,0.2c0.1,0.1,0.2,0.2,0.3,0.3c0,0.1,0.1,0.1,0.1,0.1c0.1,0.1,0.2,0.2,0.3,0.3c0,0,0.1,0.1,0.1,0.1
		c0.1,0.1,0.2,0.2,0.4,0.3c0,0,0.1,0.1,0.1,0.1c0.1,0.1,0.2,0.2,0.4,0.2c0,0,0.1,0.1,0.2,0.1c0.1,0.1,0.3,0.1,0.4,0.2
		c0.1,0,0.1,0.1,0.2,0.1C7.3,17.9,7.5,18,7.7,18c0.1,0,0.1,0,0.2,0c0.2,0,0.3,0.1,0.5,0.1c0.1,0,0.1,0,0.2,0c0.2,0,0.4,0,0.7,0
		c0.1,0,0.2,0,0.2,0c0.3,0,0.5-0.1,0.8-0.2c0.1,0,0.2,0,0.3-0.1c0.4-0.1,0.8-0.4,1.2-0.6c0.9-0.6,1.6-1.5,1.9-2.5
		c0.1-0.1,0.1-0.2,0.1-0.3c0.1-0.3,0.2-0.5,0.2-0.8c0-0.1,0-0.2,0-0.3c0-0.2,0-0.4,0-0.6c0-0.1,0-0.1,0-0.2c0-0.2,0-0.4-0.1-0.5
		c0-0.1,0-0.1,0-0.2c0-0.2-0.1-0.3-0.1-0.5c0-0.1,0-0.1-0.1-0.2c0-0.2-0.1-0.3-0.2-0.4c0-0.1,0-0.1-0.1-0.2c0-0.2-0.1-0.3-0.2-0.4
		c0-0.1-0.1-0.1-0.1-0.2c-0.1-0.1-0.1-0.2-0.2-0.3c0-0.1-0.1-0.1-0.1-0.2c-0.1-0.1-0.2-0.2-0.3-0.3c0,0,0-0.1-0.1-0.1
		c-0.1-0.1-0.2-0.2-0.3-0.3c0,0-0.1-0.1-0.1-0.1c-0.1-0.1-0.2-0.2-0.3-0.2c0,0-0.1-0.1-0.1-0.1C11.4,8.2,11.2,8.1,11,8
		c0,0-0.1-0.1-0.2-0.1c-0.1-0.1-0.3-0.1-0.5-0.2c0,0-0.1,0-0.2-0.1c-0.2-0.1-0.3-0.1-0.5-0.1c-0.1,0-0.1,0-0.2,0
		C9.4,7.5,9.2,7.5,9,7.5c-0.1,0-0.2,0-0.3,0c-0.2,0-0.4,0-0.6,0c-0.1,0-0.2,0-0.3,0C7.6,7.6,7.3,7.7,7,7.8c-0.1,0-0.2,0.1-0.3,0.1
		c-1.3,0.5-2.2,1.5-2.8,2.8c-0.1,0.1-0.1,0.2-0.1,0.4c-0.1,0.3-0.2,0.5-0.2,0.8c0,0.1-0.1,0.2,0,0.3c0,0.2-0.1,0.4,0,0.7
		c0,0.1,0,0.1,0,0.2c0,0.2,0,0.4,0.1,0.5c0,0.1,0,0.1,0,0.2c0,0.2,0.1,0.3,0.1,0.5C3.7,14.3,3.7,14.4,3.8,14.5z M11,4.6
		c-0.4,0.2-0.8,0.5-1,1C10,5.8,10,6.1,10,6.3c0,0,0,0.1,0,0.1c0,0.2,0.1,0.3,0.3,0.4c0,0.1,0.1,0.1,0.1,0.1c0.1,0.1,0.2,0.2,0.4,0.3
		c0,0,0,0,0.1,0c0.1,0.1,0.3,0.2,0.4,0.2c0,0,0.1,0.1,0.2,0.1c0.1,0.1,0.3,0.1,0.5,0.2c0,0,0.1,0.1,0.2,0.1C12.3,7.9,12.5,8,12.6,8
		c0,0,0.1,0,0.2,0c0.2,0,0.4,0.1,0.5,0.1c0.1,0,0.1,0,0.2,0c0.2,0.1,0.4,0,0.6,0c0.1,0,0.1,0,0.2,0c0.2,0,0.4,0,0.7,0
		c0.1,0,0.1,0,0.2,0c0.3,0,0.5-0.1,0.8-0.1c0.1,0,0.2,0,0.3-0.1c0.4-0.1,0.7-0.2,1-0.4c0.2-0.1,0.4-0.2,0.6-0.3
		c0.3-0.2,0.6-0.5,0.7-0.9c0.1-0.2,0.1-0.4,0-0.6c0,0,0-0.1-0.1-0.1c-0.1-0.2-0.2-0.3-0.3-0.4c0,0,0-0.1-0.1-0.1
		c-0.1-0.1-0.2-0.2-0.4-0.3c0,0-0.1-0.1-0.1-0.1c-0.1-0.1-0.2-0.2-0.4-0.2c-0.1-0.1-0.1-0.1-0.2-0.1c-0.1-0.1-0.3-0.1-0.5-0.2
		c0,0-0.1,0-0.2-0.1c-0.2-0.1-0.3-0.1-0.5-0.1c-0.1,0-0.1,0-0.2,0c-0.2,0-0.4-0.1-0.5-0.1c-0.1,0-0.1,0-0.2,0c-0.2,0-0.4,0-0.6,0
		c-0.1,0-0.1,0-0.2,0c-0.2,0-0.4,0-0.7,0c-0.1,0-0.2,0-0.3,0c-0.3,0-0.5,0.1-0.8,0.1c-0.1,0-0.2,0-0.3,0.1C11.7,4.3,11.4,4.4,11,4.6
		z"/>
	<path fill="#8184A1" d="M5.2,13.1c0,0-0.1-0.1-0.1-0.1c-0.1-0.3,0-0.5,0.3-0.5c0.1,0,0.2,0,0.3,0c0,0.1,0.1,0,0.2,0
		c0.2,0,0.4,0,0.6,0c0.1,0,0.1,0,0.2,0c0.2,0,0.4,0,0.7,0c0,0.1,0.1,0,0.2,0c0.2,0,0.4,0,0.6,0c0.3,0,0.3,0,0.3-0.3c0,0,0,0,0,0
		c0-0.2,0-0.4,0-0.6c0-0.1,0-0.2,0-0.3c0-0.2,0-0.4,0-0.6c0-0.1,0-0.2,0-0.3c0-0.2,0-0.4,0-0.6c0-0.1,0-0.2,0-0.3c0,0,0-0.1,0-0.1
		c0-0.3,0.2-0.4,0.5-0.3c0,0,0,0,0.1,0.1C9.1,9.4,9,9.6,9,9.8C9,9.9,9,9.9,9,10c0,0.2,0,0.4,0,0.6c0,0.1,0,0.1,0,0.2
		c0,0.2,0,0.4,0,0.6c0,0.1,0,0.1,0,0.2c0,0.2,0,0.4,0,0.6c0,0.1,0,0.1,0,0.2c0,0,0,0,0,0c0,0.5,0,0.6-0.6,0.6c-0.1,0-0.1,0-0.2,0
		c-0.2,0-0.4,0-0.7,0c-0.1,0-0.1,0-0.2,0c-0.2,0-0.4,0-0.6,0c-0.1,0-0.1,0-0.2,0c-0.2,0-0.4,0-0.6,0c-0.1,0-0.1,0-0.2,0
		C5.5,13.1,5.4,13.1,5.2,13.1z"/>
</g>
</svg>
