<?xml version="1.0" encoding="utf-8"?>
<!-- Generator: Adobe Illustrator 18.0.0, SVG Export Plug-In . SVG Version: 6.00 Build 0)  -->
<!DOCTYPE svg PUBLIC "-//W3C//DTD SVG 1.1//EN" "http://www.w3.org/Graphics/SVG/1.1/DTD/svg11.dtd">
<svg version="1.1" id="Layer_1" xmlns="http://www.w3.org/2000/svg" xmlns:xlink="http://www.w3.org/1999/xlink" x="0px" y="0px"
	 viewBox="0 0 22 22" enable-background="new 0 0 22 22" xml:space="preserve">
<g>
	<path fill="#8083A0" d="M1,4.1c4.2,0,8.5,0,12.8,0c0,0,0,0,0.1,0c0.2,0,0.4,0.1,0.6,0.3c0.3,0.3,0.4,0.6,0.4,1c0,3.2,0,6.4,0,9.6
		c0,0,0,0.1,0,0.1c-2.4,0-4.8,0-7.2,0c-0.3-1.3-1.4-2.1-2.7-2.2C3.7,12.8,2.4,13.7,2,15c-0.4,0-0.7,0-1.1,0s-0.6-0.2-0.7-0.5
		c0,0,0-0.1,0-0.2c0-0.1,0-0.2,0-0.2c0,0,0,0,0-0.1c0.1-0.2,0.2-0.4,0.4-0.5c0.1,0,0.2-0.1,0.4-0.1c0,0,0-0.1,0-0.1c0-3,0-6,0-9
		C1,4.2,1,4.1,1,4.1z"/>
	<path fill="#8083A0" d="M15.7,13.7c0-2.1,0-4.3,0-6.4c0,0,0.1,0,0.1,0c1.2,0,2.4,0,3.6,0c0.3,0,0.6,0.2,0.8,0.4
		c0.5,0.7,1,1.5,1.3,2.3c0.1,0.3,0.3,0.7,0.3,1.1c0,0,0,0.1,0,0.1c0,1.1,0,2.3,0,3.4c0,0.2-0.1,0.4-0.4,0.4c-0.3,0-0.5,0-0.8,0
		c0,0-0.1,0-0.1-0.1c-0.2-0.8-0.7-1.4-1.4-1.8C18,12.6,16.6,12.8,15.7,13.7C15.7,13.7,15.7,13.7,15.7,13.7z M16.8,8c0,0.7,0,1.4,0,2
		c1.3,0,2.6,0,3.9,0c0,0,0,0,0-0.1c-0.3-0.6-0.7-1.3-1.1-1.8C19.5,8.1,19.4,8,19.3,8C18.5,8,17.7,8,16.8,8C16.9,8,16.8,8,16.8,8z"/>
	<path fill="#8083A0" d="M7,15.7c0,1.2-1,2.2-2.2,2.2c-1.2,0-2.1-1-2.1-2.2c0-1.2,1-2.1,2.2-2.1C6,13.6,7,14.5,7,15.7z M5.8,15.7
		c0-0.6-0.4-1-1-1s-1,0.4-1,1c0,0.6,0.4,1,1,1S5.8,16.3,5.8,15.7z"/>
	<path fill="#8083A0" d="M17.7,17.9c-1.2,0-2.2-1-2.2-2.2c0-1.2,1-2.1,2.2-2.1c1.2,0,2.2,1,2.2,2.2C19.9,16.9,18.9,17.9,17.7,17.9z
		 M16.7,15.7c0,0.5,0.4,1,1,1c0.6,0,1-0.4,1-1c0-0.6-0.4-1-1-1C17.2,14.7,16.8,15.2,16.7,15.7z"/>
</g>
</svg>
