<?xml version="1.0" encoding="utf-8"?>
<!-- Generator: Adobe Illustrator 18.0.0, SVG Export Plug-In . SVG Version: 6.00 Build 0)  -->
<!DOCTYPE svg PUBLIC "-//W3C//DTD SVG 1.1//EN" "http://www.w3.org/Graphics/SVG/1.1/DTD/svg11.dtd">
<svg version="1.1" id="Layer_1" xmlns="http://www.w3.org/2000/svg" xmlns:xlink="http://www.w3.org/1999/xlink" x="0px" y="0px"
	 viewBox="0 0 22 22" enable-background="new 0 0 22 22" xml:space="preserve">
<g>
	<path fill="#8184A1" d="M0.4,21.6c0-6.2,0-12.4,0-18.6c1.1,0,2.2,0,3.3,0c0.1,1.4,1.1,2,2,2c1.1,0,1.9-0.7,2-2c2.2,0,4.4,0,6.6,0
		c0.1,1.3,1.1,2,1.9,2c1.1,0,1.9-0.7,2.1-2c1.1,0,2.2,0,3.3,0c0,6.2,0,12.4,0,18.5C14.5,21.6,7.5,21.6,0.4,21.6z M1.7,20.3
		c6.2,0,12.4,0,18.5,0c0-4.4,0-8.8,0-13.2C14.1,7,7.9,7,1.7,7C1.7,11.4,1.7,15.8,1.7,20.3z"/>
	<path fill="#8184A1" d="M6,0.4c0.1,0,0.1,0.1,0.2,0.1C6.7,0.7,7,1.1,7,1.7c0,0.5,0,0.9,0,1.4c0,0.7-0.6,1.3-1.3,1.3
		C5,4.4,4.4,3.8,4.4,3.1c0-0.4,0-0.9,0-1.3c0-0.7,0.3-1.1,1-1.3c0,0,0.1,0,0.1,0C5.6,0.4,5.8,0.4,6,0.4z"/>
	<path fill="#8184A1" d="M16.6,0.4c0.1,0,0.1,0.1,0.2,0.1c0.5,0.2,0.9,0.7,0.9,1.2c0,0.5,0,0.9,0,1.4c0,0.7-0.6,1.3-1.3,1.3
		c-0.7,0-1.3-0.6-1.3-1.3c0-0.4,0-0.9,0-1.3c0-0.7,0.3-1.1,1-1.3c0,0,0.1,0,0.1,0C16.2,0.4,16.4,0.4,16.6,0.4z"/>
	<path fill="#8184A1" d="M7,8.4c0,0.9,0,1.7,0,2.6c-0.9,0-1.7,0-2.6,0c0-0.9,0-1.7,0-2.6C5.3,8.4,6.1,8.4,7,8.4z"/>
	<path fill="#8184A1" d="M12.3,11c-0.9,0-1.7,0-2.6,0c0-0.9,0-1.7,0-2.6c0.9,0,1.7,0,2.6,0C12.3,9.2,12.3,10.1,12.3,11z"/>
	<path fill="#8184A1" d="M17.6,8.4c0,0.9,0,1.7,0,2.6c-0.9,0-1.7,0-2.6,0c0-0.9,0-1.7,0-2.6C15.9,8.4,16.7,8.4,17.6,8.4z"/>
	<path fill="#8184A1" d="M4.4,15c0-0.9,0-1.7,0-2.6c0.9,0,1.7,0,2.6,0c0,0.9,0,1.7,0,2.6C6.1,15,5.3,15,4.4,15z"/>
	<path fill="#8184A1" d="M12.3,12.3c0,0.9,0,1.7,0,2.6c-0.9,0-1.7,0-2.6,0c0-0.9,0-1.7,0-2.6C10.6,12.3,11.4,12.3,12.3,12.3z"/>
	<path fill="#8184A1" d="M15,15c0-0.9,0-1.7,0-2.6c0.9,0,1.7,0,2.6,0c0,0.9,0,1.7,0,2.6C16.8,15,15.9,15,15,15z"/>
	<path fill="#8184A1" d="M4.4,18.9c0-0.9,0-1.7,0-2.6c0.9,0,1.7,0,2.6,0c0,0.9,0,1.7,0,2.6C6.1,18.9,5.3,18.9,4.4,18.9z"/>
	<path fill="#8184A1" d="M12.3,16.3c0,0.9,0,1.7,0,2.6c-0.9,0-1.7,0-2.6,0c0-0.9,0-1.7,0-2.6C10.6,16.3,11.4,16.3,12.3,16.3z"/>
</g>
</svg>
