<?xml version="1.0" encoding="utf-8"?>
<!-- Generator: Adobe Illustrator 18.0.0, SVG Export Plug-In . SVG Version: 6.00 Build 0)  -->
<!DOCTYPE svg PUBLIC "-//W3C//DTD SVG 1.1//EN" "http://www.w3.org/Graphics/SVG/1.1/DTD/svg11.dtd">
<svg version="1.1" id="Layer_1" xmlns="http://www.w3.org/2000/svg" xmlns:xlink="http://www.w3.org/1999/xlink" x="0px" y="0px"
	 viewBox="3594.2 490.2 40 40" enable-background="new 3594.2 490.2 40 40" xml:space="preserve">
<g>
	<path fill="#8083A0" d="M3597,498.5c7.3,0,14.5,0,21.8,0c0.1,0,0.1,0,0.1,0c0.4,0.1,0.7,0.2,1.1,0.5c0.5,0.5,0.7,1,0.7,1.7
		c0,5.4,0,10.9,0,16.4c0,0.1,0,0.1,0,0.2c-4.1,0-8.2,0-12.3,0c-0.6-2.2-2.5-3.6-4.5-3.7c-2.2-0.1-4.4,1.4-4.9,3.7
		c-0.6,0-1.2,0-1.8,0s-1-0.4-1.3-0.9c0-0.1-0.1-0.2-0.1-0.3c0-0.1,0-0.3,0-0.4c0-0.1,0-0.1,0.1-0.1c0.1-0.4,0.3-0.7,0.7-0.9
		c0.2-0.1,0.4-0.1,0.6-0.2c0,0,0-0.1,0-0.2c0-5.1,0-10.3,0-15.4C3596.9,498.6,3597,498.5,3597,498.5z"/>
	<path fill="#8083A0" d="M3622.1,515c0-3.7,0-7.3,0-11c0.1,0,0.1,0,0.2,0c2.1,0,4.1,0,6.1,0c0.6,0,1.1,0.3,1.4,0.7
		c0.9,1.3,1.7,2.5,2.3,4c0.2,0.6,0.5,1.2,0.5,1.8c0,0.1,0,0.2,0,0.2c0,2,0,3.9,0,5.8c0,0.4-0.2,0.7-0.6,0.7c-0.5,0-0.9,0-1.4,0
		c-0.1,0-0.1-0.1-0.1-0.1c-0.4-1.4-1.2-2.4-2.5-3.1c-1.9-1-4.2-0.7-5.7,0.9C3622.2,514.9,3622.1,514.9,3622.1,515z M3624,505.2
		c0,1.2,0,2.4,0,3.5c2.2,0,4.4,0,6.6,0v-0.1c-0.5-1.1-1.2-2.2-1.9-3.2c-0.1-0.2-0.3-0.3-0.5-0.3c-1.4,0-2.7,0-4.1,0
		C3624.2,505.2,3624.1,505.2,3624,505.2z"/>
	<path fill="#8083A0" d="M3607.2,518.3c0,2.1-1.7,3.8-3.8,3.7c-2-0.1-3.7-1.7-3.7-3.8c0-2,1.7-3.7,3.7-3.7
		C3605.5,514.6,3607.2,516.3,3607.2,518.3z M3605.2,518.3c0-1-0.8-1.7-1.7-1.7s-1.7,0.8-1.7,1.7s0.8,1.7,1.7,1.7
		S3605.2,519.2,3605.2,518.3z"/>
	<path fill="#8083A0" d="M3625.7,522c-2.1,0-3.7-1.7-3.7-3.8c0-2,1.7-3.7,3.8-3.7s3.7,1.7,3.7,3.8
		C3629.3,520.4,3627.8,522,3625.7,522z M3623.9,518.3c0,0.9,0.8,1.7,1.7,1.7s1.7-0.8,1.8-1.7c0-1-0.8-1.7-1.7-1.7
		C3624.7,516.6,3624,517.3,3623.9,518.3z"/>
</g>
</svg>
